<svg version="1.1" viewBox="0.0 0.0 916.3254593175853 327.59055118110234" fill="none" stroke="none" stroke-linecap="square" stroke-miterlimit="10" xmlns:xlink="http://www.w3.org/1999/xlink" xmlns="http://www.w3.org/2000/svg"><clipPath id="p.0"><path d="m0 0l916.32544 0l0 327.59055l-916.32544 0l0 -327.59055z" clip-rule="nonzero"/></clipPath><g clip-path="url(#p.0)"><path fill="#000000" fill-opacity="0.0" d="m0 0l916.32544 0l0 327.59055l-916.32544 0z" fill-rule="evenodd"/><path fill="#ea9999" d="m36.225723 206.6447l0 0c0 -9.352798 7.581932 -16.934723 16.93472 -16.934723l120.58725 0c4.4913635 0 8.798782 1.7841797 11.974655 4.9600677c3.1758728 3.1758728 4.9600677 7.4832916 4.9600677 11.974655l0 67.73686c0 9.352783 -7.5819397 16.934723 -16.934723 16.934723l-120.58725 0c-9.352787 0 -16.93472 -7.5819397 -16.93472 -16.934723z" fill-rule="evenodd"/><path stroke="#a61c00" stroke-width="3.0" stroke-linejoin="round" stroke-linecap="butt" d="m36.225723 206.6447l0 0c0 -9.352798 7.581932 -16.934723 16.93472 -16.934723l120.58725 0c4.4913635 0 8.798782 1.7841797 11.974655 4.9600677c3.1758728 3.1758728 4.9600677 7.4832916 4.9600677 11.974655l0 67.73686c0 9.352783 -7.5819397 16.934723 -16.934723 16.934723l-120.58725 0c-9.352787 0 -16.93472 -7.5819397 -16.93472 -16.934723z" fill-rule="evenodd"/><path fill="#5b0f00" d="m93.834984 212.1675l4.34375 10.828125l4.328125 -10.828125l2.265625 0l0 13.265625l-1.75 0l0 -5.171875l0.171875 -5.5625l-4.359375 10.734375l-1.34375 0l-4.34375 -10.71875l0.171875 5.546875l0 5.171875l-1.734375 0l0 -13.265625l2.25 0zm21.350273 9.796875l-5.546875 0l-1.25 3.46875l-1.8125 0l5.0625 -13.265625l1.53125 0l5.078125 13.265625l-1.796875 0l-1.265625 -3.46875zm-5.03125 -1.4375l4.515625 0l-2.265625 -6.203125l-2.25 6.203125zm11.764038 4.90625l-1.75 0l0 -13.265625l1.75 0l0 13.265625zm13.38649 0l-1.765625 0l-6.671875 -10.21875l0 10.21875l-1.75 0l0 -13.265625l1.75 0l6.703125 10.265625l0 -10.265625l1.734375 0l0 13.265625z" fill-rule="nonzero"/><path fill="#5b0f00" d="m75.57788 243.23q-0.25 2.09375 -1.5625 3.25q-1.296875 1.140625 -3.46875 1.140625q-2.34375 0 -3.765625 -1.6875q-1.421875 -1.6875 -1.421875 -4.515625l0 -1.265625q0 -1.859375 0.65625 -3.25q0.671875 -1.40625 1.875 -2.15625q1.21875 -0.765625 2.8125 -0.765625q2.109375 0 3.390625 1.1875q1.28125 1.171875 1.484375 3.265625l-1.765625 0q-0.21875 -1.578125 -0.984375 -2.28125q-0.765625 -0.71875 -2.125 -0.71875q-1.671875 0 -2.625 1.234375q-0.953125 1.234375 -0.953125 3.53125l0 1.28125q0 2.15625 0.890625 3.4375q0.90625 1.265625 2.53125 1.265625q1.453125 0 2.234375 -0.65625q0.78125 -0.65625 1.03125 -2.296875l1.765625 0zm12.58046 -2.0q0 1.953125 -0.65625 3.40625q-0.640625 1.453125 -1.84375 2.21875q-1.203125 0.765625 -2.8125 0.765625q-1.5625 0 -2.78125 -0.765625q-1.203125 -0.78125 -1.875 -2.203125q-0.671875 -1.421875 -0.6875 -3.296875l0 -0.96875q0 -1.90625 0.65625 -3.375q0.671875 -1.46875 1.890625 -2.25q1.21875 -0.78125 2.78125 -0.78125q1.59375 0 2.8125 0.78125q1.21875 0.765625 1.859375 2.234375q0.65625 1.453125 0.65625 3.390625l0 0.84375zm-1.734375 -0.859375q0 -2.359375 -0.953125 -3.609375q-0.9375 -1.265625 -2.640625 -1.265625q-1.65625 0 -2.609375 1.265625q-0.953125 1.25 -0.984375 3.5l0 0.96875q0 2.28125 0.953125 3.59375q0.96875 1.3125 2.65625 1.3125q1.6875 0 2.609375 -1.234375q0.9375 -1.234375 0.96875 -3.546875l0 -0.984375zm6.623047 -6.203125l4.34375 10.828125l4.328125 -10.828125l2.265625 0l0 13.265625l-1.75 0l0 -5.171875l0.171875 -5.5625l-4.359375 10.734375l-1.34375 0l-4.34375 -10.71875l0.171875 5.546875l0 5.171875l-1.734375 0l0 -13.265625l2.25 0zm15.772156 8.078125l0 5.1875l-1.734375 0l0 -13.265625l4.890625 0q2.171875 0 3.40625 1.109375q1.234375 1.109375 1.234375 2.953125q0 1.921875 -1.21875 2.96875q-1.203125 1.046875 -3.453125 1.046875l-3.125 0zm0 -1.4375l3.15625 0q1.390625 0 2.140625 -0.65625q0.75 -0.65625 0.75 -1.90625q0 -1.1875 -0.75 -1.890625q-0.75 -0.71875 -2.046875 -0.75l-3.25 0l0 5.203125zm19.36322 -6.640625l0 9.015625q0 1.875 -1.171875 3.078125q-1.171875 1.1875 -3.1875 1.328125l-0.453125 0.03125q-2.1875 0 -3.484375 -1.171875q-1.28125 -1.1875 -1.296875 -3.25l0 -9.03125l1.71875 0l0 8.984375q0 1.4375 0.796875 2.234375q0.796875 0.796875 2.265625 0.796875q1.484375 0 2.265625 -0.78125q0.796875 -0.796875 0.796875 -2.234375l0 -9.0l1.75 0zm11.925537 1.4375l-4.265625 0l0 11.828125l-1.734375 0l0 -11.828125l-4.25 0l0 -1.4375l10.25 0l0 1.4375zm9.45993 5.703125l-5.75 0l0 4.6875l6.6875 0l0 1.4375l-8.421875 0l0 -13.265625l8.328125 0l0 1.4375l-6.59375 0l0 4.265625l5.75 0l0 1.4375zm7.9784546 0.765625l-3.125 0l0 5.359375l-1.75 0l0 -13.265625l4.390625 0q2.234375 0 3.4375 1.03125q1.21875 1.015625 1.21875 2.953125q0 1.25 -0.671875 2.171875q-0.671875 0.921875 -1.859375 1.375l3.109375 5.625l0 0.109375l-1.875 0l-2.875 -5.359375zm-3.125 -1.4375l2.6875 0q1.3125 0 2.078125 -0.671875q0.765625 -0.671875 0.765625 -1.8125q0 -1.21875 -0.734375 -1.875q-0.734375 -0.65625 -2.109375 -0.671875l-2.6875 0l0 5.03125z" fill-rule="nonzero"/><path fill="#5b0f00" d="m96.79871 255.65187l-1.734375 0l0 15.23439l1.734375 0l0 1.390625l-3.4375 0l0 -18.000015l3.4375 0l0 1.375zm9.212074 7.6562653l-5.7499924 0l0 4.6875l6.6874924 0l0 1.4375l-8.421867 0l0 -13.265625l8.328117 0l0 1.4375l-6.5937424 0l0 4.265625l5.7499924 0l0 1.4375zm7.5097046 3.796875l3.78125 -10.9375l1.921875 0l-4.921875 13.265625l-1.546875 0l-4.921875 -13.265625l1.90625 0l3.78125 10.9375zm9.47905 -5.125l1.265625 0q1.203125 -0.015625 1.875 -0.625q0.6875 -0.609375 0.6875 -1.65625q0 -2.328125 -2.3125 -2.328125q-1.09375 0 -1.75 0.625q-0.65625 0.625 -0.65625 1.65625l-1.6875 0q0 -1.578125 1.15625 -2.625q1.15625 -1.0468903 2.9375 -1.0468903q1.875 0 2.9375 1.0000153q1.0625 1.0 1.0625 2.765625q0 0.859375 -0.5625 1.671875q-0.5625 0.8125 -1.515625 1.203125q1.09375 0.359375 1.6875 1.15625q0.59375 0.796875 0.59375 1.953125q0 1.796875 -1.171875 2.84375q-1.15625 1.046875 -3.03125 1.046875q-1.859375 0 -3.03125 -1.015625q-1.171875 -1.015625 -1.171875 -2.671875l1.6875 0q0 1.046875 0.6875 1.6875q0.6875 0.625 1.828125 0.625q1.21875 0 1.859375 -0.640625q0.65625 -0.640625 0.65625 -1.828125q0 -1.15625 -0.71875 -1.78125q-0.703125 -0.625 -2.046875 -0.640625l-1.265625 0l0 -1.375zm7.0071716 -7.7031403l3.453125 0l0 18.000015l-3.453125 0l0 -1.390625l1.765625 0l0 -15.23439l-1.765625 0l0 -1.375z" fill-rule="nonzero"/><path fill="#b6d7a8" d="m190.68242 240.51312l33.18109 -33.181107l0 16.59056l122.3307 0l0 -16.59056l33.18112 33.181107l-33.18112 33.18109l0 -16.590546l-122.3307 0l0 16.590546z" fill-rule="evenodd"/><path stroke="#6aa84f" stroke-width="3.0" stroke-linejoin="round" stroke-linecap="butt" d="m190.68242 240.51312l33.18109 -33.181107l0 16.59056l122.3307 0l0 -16.59056l33.18112 33.181107l-33.18112 33.18109l0 -16.590546l-122.3307 0l0 16.590546z" fill-rule="evenodd"/><path fill="#274e13" d="m268.87067 231.99062l0 11.59375q-0.015625 2.421875 -1.53125 3.96875q-1.5 1.53125 -4.078125 1.71875l-0.59375 0.015625q-2.796875 0 -4.46875 -1.515625q-1.65625 -1.515625 -1.6875 -4.15625l0 -11.625l2.234375 0l0 11.546875q0 1.859375 1.015625 2.890625q1.015625 1.015625 2.90625 1.015625q1.90625 0 2.921875 -1.015625q1.015625 -1.015625 1.015625 -2.875l0 -11.5625l2.265625 0zm12.96875 12.609375l-7.15625 0l-1.59375 4.453125l-2.328125 0l6.515625 -17.0625l1.96875 0l6.53125 17.0625l-2.3125 0l-1.625 -4.453125zm-6.46875 -1.859375l5.796875 0l-2.90625 -7.96875l-2.890625 7.96875zm18.953125 -0.59375l-4.0 0l0 6.90625l-2.265625 0l0 -17.0625l5.65625 0q2.875 0 4.421875 1.3125q1.5625 1.3125 1.5625 3.8125q0 1.59375 -0.859375 2.78125q-0.859375 1.1875 -2.40625 1.765625l4.015625 7.25l0 0.140625l-2.421875 0l-3.703125 -6.90625zm-4.0 -1.84375l3.453125 0q1.671875 0 2.65625 -0.859375q1.0 -0.875 1.0 -2.328125q0 -1.578125 -0.953125 -2.421875q-0.9375 -0.84375 -2.71875 -0.859375l-3.4375 0l0 6.46875zm24.308594 -6.46875l-5.484375 0l0 15.21875l-2.234375 0l0 -15.21875l-5.46875 0l0 -1.84375l13.1875 0l0 1.84375z" fill-rule="nonzero"/><path fill="#9fc5e8" d="m380.4147 205.60796l0 0c0 -9.352798 7.5819397 -16.934723 16.934723 -16.934723l120.58722 0c4.491394 0 8.798828 1.7841797 11.97467 4.9600677c3.1759033 3.1758728 4.960083 7.4832764 4.960083 11.974655l0 67.73686c0 9.352783 -7.58197 16.934723 -16.934753 16.934723l-120.58722 0c-9.352783 0 -16.934723 -7.5819397 -16.934723 -16.934723z" fill-rule="evenodd"/><path stroke="#3c78d8" stroke-width="3.0" stroke-linejoin="round" stroke-linecap="butt" d="m380.4147 205.60796l0 0c0 -9.352798 7.5819397 -16.934723 16.934723 -16.934723l120.58722 0c4.491394 0 8.798828 1.7841797 11.97467 4.9600677c3.1759033 3.1758728 4.960083 7.4832764 4.960083 11.974655l0 67.73686c0 9.352783 -7.58197 16.934723 -16.934753 16.934723l-120.58722 0c-9.352783 0 -16.934723 -7.5819397 -16.934723 -16.934723z" fill-rule="evenodd"/><path fill="#1c4587" d="m407.10464 229.49013q-2.25 -0.65625 -3.28125 -1.59375q-1.03125 -0.9375 -1.03125 -2.328125q0 -1.5625 1.25 -2.59375q1.265625 -1.03125 3.265625 -1.03125q1.359375 0 2.4375 0.53125q1.078125 0.53125 1.65625 1.46875q0.59375 0.921875 0.59375 2.03125l-1.765625 0q0 -1.203125 -0.765625 -1.890625q-0.765625 -0.6875 -2.15625 -0.6875q-1.296875 0 -2.015625 0.5625q-0.71875 0.5625 -0.71875 1.578125q0 0.8125 0.6875 1.375q0.6875 0.5625 2.328125 1.03125q1.65625 0.453125 2.59375 1.015625q0.9375 0.5625 1.375 1.3125q0.453125 0.75 0.453125 1.75q0 1.609375 -1.25 2.59375q-1.25 0.96875 -3.359375 0.96875q-1.375 0 -2.5625 -0.515625q-1.171875 -0.53125 -1.8125 -1.4375q-0.640625 -0.921875 -0.640625 -2.078125l1.75 0q0 1.203125 0.890625 1.90625q0.890625 0.6875 2.375 0.6875q1.375 0 2.109375 -0.5625q0.75 -0.5625 0.75 -1.53125q0 -0.984375 -0.6875 -1.515625q-0.6875 -0.53125 -2.46875 -1.046875zm14.646179 -0.21875l-5.75 0l0 4.6875l6.6875 0l0 1.4375l-8.421875 0l0 -13.265625l8.328125 0l0 1.4375l-6.59375 0l0 4.265625l5.75 0l0 1.4375zm13.30658 6.125l-1.765625 0l-6.671875 -10.21875l0 10.21875l-1.75 0l0 -13.265625l1.75 0l6.703125 10.265625l0 -10.265625l1.734375 0l0 13.265625zm7.0186157 -5.90625q-2.25 -0.65625 -3.28125 -1.59375q-1.03125 -0.9375 -1.03125 -2.328125q0 -1.5625 1.25 -2.59375q1.265625 -1.03125 3.265625 -1.03125q1.359375 0 2.4375 0.53125q1.078125 0.53125 1.65625 1.46875q0.59375 0.921875 0.59375 2.03125l-1.765625 0q0 -1.203125 -0.765625 -1.890625q-0.765625 -0.6875 -2.15625 -0.6875q-1.296875 0 -2.015625 0.5625q-0.71875 0.5625 -0.71875 1.578125q0 0.8125 0.6875 1.375q0.6875 0.5625 2.328125 1.03125q1.65625 0.453125 2.59375 1.015625q0.9375 0.5625 1.375 1.3125q0.453125 0.75 0.453125 1.75q0 1.609375 -1.25 2.59375q-1.25 0.96875 -3.359375 0.96875q-1.375 0 -2.5625 -0.515625q-1.171875 -0.53125 -1.8125 -1.4375q-0.640625 -0.921875 -0.640625 -2.078125l1.75 0q0 1.203125 0.890625 1.90625q0.890625 0.6875 2.375 0.6875q1.375 0 2.109375 -0.5625q0.75 -0.5625 0.75 -1.53125q0 -0.984375 -0.6875 -1.515625q-0.6875 -0.53125 -2.46875 -1.046875zm17.349274 -0.296875q0 1.953125 -0.65625 3.40625q-0.640625 1.453125 -1.84375 2.21875q-1.203125 0.765625 -2.8125 0.765625q-1.5625 0 -2.78125 -0.765625q-1.203125 -0.78125 -1.875 -2.203125q-0.671875 -1.421875 -0.6875 -3.296875l0 -0.96875q0 -1.90625 0.65625 -3.375q0.671875 -1.46875 1.890625 -2.25q1.21875 -0.78125 2.78125 -0.78125q1.59375 0 2.8125 0.78125q1.21875 0.765625 1.859375 2.234375q0.65625 1.453125 0.65625 3.390625l0 0.84375zm-1.734375 -0.859375q0 -2.359375 -0.953125 -3.609375q-0.9375 -1.265625 -2.640625 -1.265625q-1.65625 0 -2.609375 1.265625q-0.953125 1.25 -0.984375 3.5l0 0.96875q0 2.28125 0.953125 3.59375q0.96875 1.3125 2.65625 1.3125q1.6875 0 2.609375 -1.234375q0.9375 -1.234375 0.96875 -3.546875l0 -0.984375zm9.232422 1.703125l-3.125 0l0 5.359375l-1.75 0l0 -13.265625l4.390625 0q2.234375 0 3.4375 1.03125q1.21875 1.015625 1.21875 2.953125q0 1.25 -0.671875 2.171875q-0.671875 0.921875 -1.859375 1.375l3.109375 5.625l0 0.109375l-1.875 0l-2.875 -5.359375zm-3.125 -1.4375l2.6875 0q1.3125 0 2.078125 -0.671875q0.765625 -0.671875 0.765625 -1.8125q0 -1.21875 -0.734375 -1.875q-0.734375 -0.65625 -2.109375 -0.671875l-2.6875 0l0 5.03125zm24.558716 6.796875l-1.765625 0l0 -6.125l-6.6875 0l0 6.125l-1.734375 0l0 -13.265625l1.734375 0l0 5.703125l6.6875 0l0 -5.703125l1.765625 0l0 13.265625zm12.440491 -13.265625l0 9.015625q0 1.875 -1.171875 3.078125q-1.171875 1.1875 -3.1875 1.328125l-0.453125 0.03125q-2.1875 0 -3.484375 -1.171875q-1.28125 -1.1875 -1.296875 -3.25l0 -9.03125l1.71875 0l0 8.984375q0 1.4375 0.796875 2.234375q0.796875 0.796875 2.265625 0.796875q1.484375 0 2.265625 -0.78125q0.796875 -0.796875 0.796875 -2.234375l0 -9.0l1.75 0zm2.769287 13.265625l0 -13.265625l4.328125 0q2.15625 0 3.25 0.890625q1.09375 0.890625 1.09375 2.640625q0 0.9375 -0.53125 1.65625q-0.53125 0.703125 -1.4375 1.09375q1.0625 0.3125 1.6875 1.15625q0.625 0.84375 0.625 2.0q0 1.78125 -1.15625 2.8125q-1.15625 1.015625 -3.265625 1.015625l-4.59375 0zm1.734375 -6.203125l0 4.765625l2.890625 0q1.21875 0 1.921875 -0.625q0.71875 -0.640625 0.71875 -1.75q0 -2.390625 -2.609375 -2.390625l-2.921875 0zm0 -1.40625l2.65625 0q1.140625 0 1.828125 -0.5625q0.6875 -0.578125 0.6875 -1.5625q0 -1.09375 -0.640625 -1.59375q-0.640625 -0.5 -1.9375 -0.5l-2.59375 0l0 4.21875z" fill-rule="nonzero"/><path fill="#1c4587" d="m425.08707 243.61513l-1.734375 0l0 15.23436l1.734375 0l0 1.390625l-3.4375 0l0 -17.999985l3.4375 0l0 1.375zm9.040192 10.3125l-5.546875 0l-1.25 3.4687347l-1.8125 0l5.0625 -13.26561l1.53125 0l5.078125 13.26561l-1.796875 0l-1.265625 -3.4687347zm-5.03125 -1.4375l4.515625 0l-2.265625 -6.203125l-2.25 6.203125zm14.389038 -3.4375q-0.390625 -0.0625 -0.84375 -0.0625q-1.65625 0 -2.25 1.40625l0 6.9999847l-1.671875 0l0 -9.85936l1.640625 0l0.015625 1.140625q0.828125 -1.3125 2.359375 -1.3125q0.484375 0 0.75 0.125l0 1.5625zm1.1253967 3.328125q0 -2.265625 1.078125 -3.640625q1.078125 -1.375 2.8125 -1.375q1.734375 0 2.75 1.171875l0 -5.140625l1.6875 0l0 13.999985l-1.546875 0l-0.09375 -1.0625q-1.0 1.25 -2.8125 1.25q-1.703125 0 -2.796875 -1.40625q-1.078125 -1.4062347 -1.078125 -3.6562347l0 -0.140625zm1.6875 0.203125q0 1.671875 0.6875 2.625q0.703125 0.93748474 1.921875 0.93748474q1.609375 0 2.34375 -1.4374847l0 -4.53125q-0.765625 -1.390625 -2.328125 -1.390625q-1.234375 0 -1.9375 0.953125q-0.6875 0.953125 -0.6875 2.84375zm15.333954 3.8437347q-0.984375 1.15625 -2.890625 1.15625q-1.578125 0 -2.40625 -0.921875q-0.8125 -0.92185974 -0.828125 -2.7031097l0 -6.421875l1.6875 0l0 6.375q0 2.2343597 1.828125 2.2343597q1.921875 0 2.5625 -1.4374847l0 -7.171875l1.6875 0l0 9.85936l-1.609375 0l-0.03125 -0.96875zm6.0346375 0.96875l-1.6875 0l0 -9.85936l1.6875 0l0 9.85936zm-1.828125 -12.468735q0 -0.40625 0.25 -0.6875q0.25 -0.296875 0.734375 -0.296875q0.5 0 0.75 0.296875q0.265625 0.28125 0.265625 0.6875q0 0.40625 -0.265625 0.6875q-0.25 0.265625 -0.75 0.265625q-0.484375 0 -0.734375 -0.265625q-0.25 -0.28125 -0.25 -0.6875zm6.121155 2.609375l0.046875 1.234375q1.125 -1.40625 2.953125 -1.40625q3.125 0 3.15625 3.515625l0 6.5156097l-1.6875 0l0 -6.5156097q-0.015625 -1.078125 -0.5 -1.578125q-0.46875 -0.515625 -1.484375 -0.515625q-0.8125 0 -1.4375 0.4375q-0.609375 0.4375 -0.96875 1.15625l0 7.0156097l-1.671875 0l0 -9.85936l1.59375 0zm8.246857 4.84375q0 -1.453125 0.5625 -2.609375q0.578125 -1.15625 1.59375 -1.78125q1.015625 -0.625 2.3125 -0.625q2.015625 0 3.25 1.390625q1.25 1.390625 1.25 3.703125l0 0.125q0 1.4375 -0.546875 2.578125q-0.546875 1.1406097 -1.578125 1.7812347q-1.015625 0.640625 -2.359375 0.640625q-2.0 0 -3.25 -1.390625q-1.234375 -1.4062347 -1.234375 -3.7031097l0 -0.109375zm1.6875 0.203125q0 1.640625 0.765625 2.640625q0.765625 0.98435974 2.03125 0.98435974q1.296875 0 2.046875 -0.99998474q0.75 -1.015625 0.75 -2.828125q0 -1.625 -0.765625 -2.625q-0.765625 -1.015625 -2.046875 -1.015625q-1.25 0 -2.015625 1.0q-0.765625 0.984375 -0.765625 2.84375zm8.202393 -10.34375l3.453125 0l0 17.999985l-3.453125 0l0 -1.390625l1.765625 0l0 -15.23436l-1.765625 0l0 -1.375z" fill-rule="nonzero"/><path fill="#f9cb9c" d="m317.27036 79.01602l0 0c0 -5.180847 4.19989 -9.38076 9.380737 -9.38076l71.285736 0c2.487915 0 4.8739624 0.988327 6.633209 2.7475586c1.7592163 1.7592392 2.7475586 4.1452713 2.7475586 6.6332016l0 37.521935c0 5.180855 -4.1999207 9.380768 -9.380768 9.380768l-71.285736 0c-5.180847 0 -9.380737 -4.199913 -9.380737 -9.380768z" fill-rule="evenodd"/><path stroke="#e69138" stroke-width="3.0" stroke-linejoin="round" stroke-linecap="butt" d="m317.27036 79.01602l0 0c0 -5.180847 4.19989 -9.38076 9.380737 -9.38076l71.285736 0c2.487915 0 4.8739624 0.988327 6.633209 2.7475586c1.7592163 1.7592392 2.7475586 4.1452713 2.7475586 6.6332016l0 37.521935c0 5.180855 -4.1999207 9.380768 -9.380768 9.380768l-71.285736 0c-5.180847 0 -9.380737 -4.199913 -9.380737 -9.380768z" fill-rule="evenodd"/><path fill="#783f04" d="m340.04526 85.10824l0 6.4375q0 1.34375 -0.84375 2.203125q-0.828125 0.84375 -2.265625 0.9375l-0.328125 0.015625q-1.5625 0 -2.484375 -0.828125q-0.921875 -0.84375 -0.9375 -2.3125l0 -6.453125l1.234375 0l0 6.40625q0 1.03125 0.5625 1.609375q0.578125 0.5625 1.625 0.5625q1.0625 0 1.625 -0.5625q0.5625 -0.578125 0.5625 -1.59375l0 -6.421875l1.25 0zm3.095581 9.46875l-1.203125 0l0 -10.0l1.203125 0l0 10.0zm3.562561 -8.75l0 1.703125l1.3125 0l0 0.9375l-1.3125 0l0 4.359375q0 0.421875 0.171875 0.640625q0.171875 0.21875 0.59375 0.21875q0.21875 0 0.578125 -0.078125l0 0.96875q-0.46875 0.125 -0.921875 0.125q-0.8125 0 -1.21875 -0.484375q-0.40625 -0.484375 -0.40625 -1.390625l0 -4.359375l-1.28125 0l0 -0.9375l1.28125 0l0 -1.703125l1.203125 0zm6.119385 2.78125q-0.265625 -0.03125 -0.59375 -0.03125q-1.1875 0 -1.609375 1.0l0 5.0l-1.203125 0l0 -7.046875l1.171875 0l0.03125 0.8125q0.578125 -0.9375 1.671875 -0.9375q0.34375 0 0.53125 0.09375l0 1.109375zm5.4631042 5.96875q-0.109375 -0.203125 -0.171875 -0.734375q-0.84375 0.859375 -2.015625 0.859375q-1.03125 0 -1.703125 -0.578125q-0.671875 -0.59375 -0.671875 -1.5q0 -1.09375 0.828125 -1.703125q0.84375 -0.609375 2.359375 -0.609375l1.171875 0l0 -0.5625q0 -0.625 -0.375 -1.0q-0.375 -0.375 -1.109375 -0.375q-0.640625 0 -1.078125 0.328125q-0.4375 0.328125 -0.4375 0.78125l-1.203125 0q0 -0.515625 0.359375 -1.0q0.375 -0.5 1.015625 -0.78125q0.65625 -0.296875 1.421875 -0.296875q1.21875 0 1.90625 0.609375q0.6875 0.609375 0.71875 1.671875l0 3.25q0 0.96875 0.234375 1.53125l0 0.109375l-1.25 0zm-2.0 -0.921875q0.5625 0 1.0625 -0.28125q0.515625 -0.296875 0.734375 -0.765625l0 -1.453125l-0.9375 0q-2.21875 0 -2.21875 1.296875q0 0.5625 0.375 0.890625q0.390625 0.3125 0.984375 0.3125zm8.999756 -0.953125q0 -0.484375 -0.375 -0.75q-0.359375 -0.265625 -1.28125 -0.453125q-0.90625 -0.203125 -1.453125 -0.46875q-0.53125 -0.28125 -0.796875 -0.65625q-0.25 -0.390625 -0.25 -0.90625q0 -0.859375 0.734375 -1.453125q0.734375 -0.609375 1.875 -0.609375q1.1875 0 1.9375 0.625q0.75 0.609375 0.75 1.578125l-1.21875 0q0 -0.5 -0.421875 -0.859375q-0.421875 -0.359375 -1.046875 -0.359375q-0.65625 0 -1.03125 0.296875q-0.375 0.28125 -0.375 0.75q0 0.421875 0.34375 0.65625q0.34375 0.21875 1.25 0.421875q0.90625 0.203125 1.453125 0.484375q0.5625 0.265625 0.828125 0.671875q0.28125 0.390625 0.28125 0.953125q0 0.9375 -0.765625 1.515625q-0.75 0.5625 -1.953125 0.5625q-0.84375 0 -1.5 -0.296875q-0.640625 -0.296875 -1.015625 -0.828125q-0.359375 -0.546875 -0.359375 -1.171875l1.203125 0q0.03125 0.609375 0.484375 0.96875q0.453125 0.34375 1.1875 0.34375q0.6875 0 1.09375 -0.265625q0.421875 -0.28125 0.421875 -0.75zm2.4504395 -1.703125q0 -1.046875 0.40625 -1.875q0.40625 -0.828125 1.125 -1.265625q0.734375 -0.453125 1.65625 -0.453125q1.4375 0 2.328125 1.0q0.890625 0.984375 0.890625 2.640625l0 0.09375q0 1.015625 -0.390625 1.84375q-0.390625 0.8125 -1.125 1.265625q-0.734375 0.453125 -1.6875 0.453125q-1.421875 0 -2.3125 -0.984375q-0.890625 -1.0 -0.890625 -2.640625l0 -0.078125zm1.203125 0.140625q0 1.171875 0.546875 1.875q0.546875 0.703125 1.453125 0.703125q0.921875 0 1.453125 -0.71875q0.546875 -0.71875 0.546875 -2.0q0 -1.171875 -0.546875 -1.890625q-0.546875 -0.71875 -1.46875 -0.71875q-0.890625 0 -1.4375 0.71875q-0.546875 0.703125 -0.546875 2.03125zm7.8511963 -3.609375l0.046875 0.890625q0.796875 -1.015625 2.109375 -1.015625q2.234375 0 2.25 2.515625l0 4.65625l-1.203125 0l0 -4.65625q-0.015625 -0.765625 -0.359375 -1.125q-0.328125 -0.375 -1.0625 -0.375q-0.578125 0 -1.03125 0.3125q-0.4375 0.3125 -0.6875 0.828125l0 5.015625l-1.203125 0l0 -7.046875l1.140625 0zm7.5257874 7.046875l-1.203125 0l0 -7.046875l1.203125 0l0 7.046875zm-1.296875 -8.90625q0 -0.296875 0.171875 -0.5q0.1875 -0.203125 0.53125 -0.203125q0.359375 0 0.53125 0.203125q0.1875 0.203125 0.1875 0.5q0 0.296875 -0.1875 0.5q-0.171875 0.1875 -0.53125 0.1875q-0.34375 0 -0.53125 -0.1875q-0.171875 -0.203125 -0.171875 -0.5zm6.0469055 8.046875q0.640625 0 1.125 -0.390625q0.484375 -0.390625 0.53125 -0.96875l1.140625 0q-0.03125 0.609375 -0.421875 1.15625q-0.375 0.546875 -1.015625 0.875q-0.640625 0.3125 -1.359375 0.3125q-1.4375 0 -2.296875 -0.953125q-0.84375 -0.96875 -0.84375 -2.625l0 -0.203125q0 -1.03125 0.375 -1.828125q0.390625 -0.796875 1.09375 -1.234375q0.703125 -0.453125 1.671875 -0.453125q1.171875 0 1.953125 0.71875q0.796875 0.703125 0.84375 1.828125l-1.140625 0q-0.046875 -0.671875 -0.515625 -1.109375q-0.46875 -0.453125 -1.140625 -0.453125q-0.921875 0 -1.4375 0.671875q-0.5 0.65625 -0.5 1.90625l0 0.21875q0 1.21875 0.5 1.875q0.515625 0.65625 1.4375 0.65625z" fill-rule="nonzero"/><path fill="#783f04" d="m335.69888 100.73324l-1.25 0l0 10.890625l1.25 0l0 0.984375l-2.453125 0l0 -12.859375l2.453125 0l0 0.984375zm8.502533 9.84375l-1.25 0l0 -4.375l-4.78125 0l0 4.375l-1.25 0l0 -9.46875l1.25 0l0 4.0625l4.78125 0l0 -4.0625l1.25 0l0 9.46875zm9.188995 -3.0q-0.171875 1.5 -1.109375 2.3125q-0.921875 0.8125 -2.46875 0.8125q-1.6875 0 -2.703125 -1.203125q-1.0 -1.203125 -1.0 -3.21875l0 -0.90625q0 -1.328125 0.46875 -2.328125q0.46875 -1.0 1.328125 -1.53125q0.875 -0.546875 2.015625 -0.546875q1.5 0 2.40625 0.84375q0.921875 0.84375 1.0625 2.328125l-1.25 0q-0.15625 -1.125 -0.703125 -1.625q-0.546875 -0.515625 -1.515625 -0.515625q-1.203125 0 -1.890625 0.890625q-0.671875 0.875 -0.671875 2.515625l0 0.921875q0 1.53125 0.640625 2.453125q0.640625 0.90625 1.8125 0.90625q1.03125 0 1.578125 -0.46875q0.5625 -0.46875 0.75 -1.640625l1.25 0zm4.0343933 -0.53125l-3.1875 0l0 -0.984375l3.1875 0l0 0.984375zm4.145691 -0.6875q-1.609375 -0.46875 -2.34375 -1.140625q-0.734375 -0.671875 -0.734375 -1.65625q0 -1.125 0.890625 -1.859375q0.90625 -0.734375 2.34375 -0.734375q0.96875 0 1.734375 0.390625q0.765625 0.375 1.1875 1.046875q0.421875 0.65625 0.421875 1.4375l-1.265625 0q0 -0.859375 -0.546875 -1.34375q-0.546875 -0.5 -1.53125 -0.5q-0.921875 0 -1.453125 0.40625q-0.515625 0.40625 -0.515625 1.125q0 0.578125 0.484375 0.984375q0.5 0.40625 1.671875 0.734375q1.1875 0.328125 1.859375 0.734375q0.671875 0.390625 0.984375 0.9375q0.328125 0.53125 0.328125 1.25q0 1.15625 -0.90625 1.84375q-0.890625 0.6875 -2.390625 0.6875q-0.984375 0 -1.828125 -0.375q-0.84375 -0.375 -1.3125 -1.015625q-0.453125 -0.65625 -0.453125 -1.484375l1.265625 0q0 0.859375 0.625 1.359375q0.640625 0.5 1.703125 0.5q0.984375 0 1.515625 -0.40625q0.53125 -0.40625 0.53125 -1.09375q0 -0.703125 -0.5 -1.078125q-0.484375 -0.390625 -1.765625 -0.75zm8.594574 0.390625l-2.234375 0l0 3.828125l-1.25 0l0 -9.46875l3.140625 0q1.59375 0 2.453125 0.734375q0.875 0.71875 0.875 2.109375q0 0.890625 -0.484375 1.546875q-0.484375 0.65625 -1.328125 0.984375l2.21875 4.015625l0 0.078125l-1.34375 0l-2.046875 -3.828125zm-2.234375 -1.03125l1.921875 0q0.9375 0 1.484375 -0.46875q0.546875 -0.484375 0.546875 -1.296875q0 -0.875 -0.53125 -1.34375q-0.515625 -0.46875 -1.5 -0.484375l-1.921875 0l0 3.59375zm12.597076 0.8125q0 2.125 -0.734375 3.15625q-0.71875 1.015625 -2.25 1.015625q-1.515625 0 -2.25 -1.0q-0.71875 -1.0 -0.75 -3.0l0 -1.609375q0 -2.09375 0.71875 -3.109375q0.71875 -1.015625 2.265625 -1.015625q1.53125 0 2.25 0.984375q0.71875 0.984375 0.75 3.015625l0 1.5625zm-1.203125 -1.640625q0 -1.53125 -0.4375 -2.21875q-0.421875 -0.703125 -1.359375 -0.703125q-0.921875 0 -1.34375 0.703125q-0.421875 0.6875 -0.4375 2.125l0 1.921875q0 1.546875 0.4375 2.28125q0.453125 0.71875 1.359375 0.71875q0.890625 0 1.3125 -0.6875q0.4375 -0.6875 0.46875 -2.171875l0 -1.96875zm7.8277893 2.5l1.3125 0l0 0.984375l-1.3125 0l0 2.203125l-1.21875 0l0 -2.203125l-4.3125 0l0 -0.703125l4.25 -6.5625l1.28125 0l0 6.28125zm-4.15625 0l2.9375 0l0 -4.640625l-0.140625 0.265625l-2.796875 4.375zm5.82782 -7.640625l2.453125 0l0 12.859375l-2.453125 0l0 -0.984375l1.25 0l0 -10.890625l-1.25 0l0 -0.984375z" fill-rule="nonzero"/><path fill="#000000" fill-opacity="0.0" d="m362.29398 125.918724c0 15.688484 23.834625 23.534462 47.66928 31.376976c23.834656 7.8425293 47.66928 15.681595 47.66928 31.363174" fill-rule="evenodd"/><path stroke="#b45f06" stroke-width="3.0" stroke-linejoin="round" stroke-linecap="butt" d="m362.29398 125.918724c0 15.688484 23.834625 23.534462 47.66928 31.376976c23.834656 7.8425293 47.66928 15.681595 47.66928 31.363174" fill-rule="evenodd"/><path fill="#b6d7a8" d="m535.91077 239.47638l33.18109 -33.181107l0 16.59056l122.33069 0l0 -16.59056l33.181152 33.181107l-33.181152 33.18109l0 -16.590546l-122.33069 0l0 16.590546z" fill-rule="evenodd"/><path stroke="#6aa84f" stroke-width="3.0" stroke-linejoin="round" stroke-linecap="butt" d="m535.91077 239.47638l33.18109 -33.181107l0 16.59056l122.33069 0l0 -16.59056l33.181152 33.181107l-33.181152 33.18109l0 -16.590546l-122.33069 0l0 16.590546z" fill-rule="evenodd"/><path fill="#274e13" d="m619.1732 248.01637l-2.25 0l0 -17.0625l2.25 0l0 17.0625zm10.136719 -7.8125l-7.015625 0l0 -1.265625l3.515625 -3.3125q1.28125 -1.1875 1.28125 -2.0q0 -0.578125 -0.375 -0.9375q-0.375 -0.359375 -1.078125 -0.359375q-0.875 0 -1.296875 0.453125q-0.421875 0.4375 -0.421875 1.109375l-1.828125 0q0 -1.328125 0.96875 -2.1875q0.984375 -0.875 2.53125 -0.875q1.546875 0 2.4375 0.75q0.90625 0.734375 0.90625 2.015625q0 1.21875 -1.25 2.484375l-0.984375 0.921875l-2.0625 1.703125l4.671875 0l0 1.5zm15.332031 2.390625q-0.3125 2.71875 -2.0 4.1875q-1.671875 1.46875 -4.46875 1.46875q-3.015625 0 -4.84375 -2.171875q-1.828125 -2.171875 -1.828125 -5.796875l0 -1.640625q0 -2.375 0.84375 -4.171875q0.859375 -1.8125 2.421875 -2.78125q1.5625 -0.96875 3.609375 -0.96875q2.71875 0 4.359375 1.515625q1.640625 1.515625 1.90625 4.203125l-2.265625 0q-0.28125 -2.046875 -1.265625 -2.953125q-0.984375 -0.921875 -2.734375 -0.921875q-2.15625 0 -3.390625 1.59375q-1.21875 1.59375 -1.21875 4.546875l0 1.640625q0 2.78125 1.15625 4.421875q1.171875 1.640625 3.25 1.640625q1.875 0 2.875 -0.84375q1.0 -0.859375 1.328125 -2.96875l2.265625 0z" fill-rule="nonzero"/><path fill="#9fc5e8" d="m725.64307 206.6447l0 0c0 -9.352798 7.581909 -16.934723 16.934692 -16.934723l120.58728 0c4.491333 0 8.798767 1.7841797 11.974609 4.9600677c3.1759033 3.1758728 4.960083 7.4832916 4.960083 11.974655l0 67.73686c0 9.352783 -7.581909 16.934723 -16.934692 16.934723l-120.58728 0c-9.352783 0 -16.934692 -7.5819397 -16.934692 -16.934723z" fill-rule="evenodd"/><path stroke="#3c78d8" stroke-width="3.0" stroke-linejoin="round" stroke-linecap="butt" d="m725.64307 206.6447l0 0c0 -9.352798 7.581909 -16.934723 16.934692 -16.934723l120.58728 0c4.491333 0 8.798767 1.7841797 11.974609 4.9600677c3.1759033 3.1758728 4.960083 7.4832916 4.960083 11.974655l0 67.73686c0 9.352783 -7.581909 16.934723 -16.934692 16.934723l-120.58728 0c-9.352783 0 -16.934692 -7.5819397 -16.934692 -16.934723z" fill-rule="evenodd"/><path fill="#1c4587" d="m749.1747 234.99562l6.28125 0l0 1.4375l-8.03125 0l0 -13.265625l1.75 0l0 11.828125zm10.163696 1.4375l-1.75 0l0 -13.265625l1.75 0l0 13.265625zm13.386475 0l-1.765625 0l-6.671875 -10.21875l0 10.21875l-1.75 0l0 -13.265625l1.75 0l6.703125 10.265625l0 -10.265625l1.734375 0l0 13.265625zm10.596741 -6.125l-5.75 0l0 4.6875l6.6875 0l0 1.4375l-8.421875 0l0 -13.265625l8.328125 0l0 1.4375l-6.59375 0l0 4.265625l5.75 0l0 1.4375zm11.64386 0.21875q-2.25 -0.65625 -3.28125 -1.59375q-1.03125 -0.9375 -1.03125 -2.328125q0 -1.5625 1.25 -2.59375q1.265625 -1.03125 3.265625 -1.03125q1.359375 0 2.4375 0.53125q1.078125 0.53125 1.65625 1.46875q0.59375 0.921875 0.59375 2.03125l-1.765625 0q0 -1.203125 -0.765625 -1.890625q-0.765625 -0.6875 -2.15625 -0.6875q-1.296875 0 -2.015625 0.5625q-0.71875 0.5625 -0.71875 1.578125q0 0.8125 0.6875 1.375q0.6875 0.5625 2.328125 1.03125q1.65625 0.453125 2.59375 1.015625q0.9375 0.5625 1.375 1.3125q0.453125 0.75 0.453125 1.75q0 1.609375 -1.25 2.59375q-1.25 0.96875 -3.359375 0.96875q-1.375 0 -2.5625 -0.515625q-1.171875 -0.53125 -1.8125 -1.4375q-0.640625 -0.921875 -0.640625 -2.078125l1.75 0q0 1.203125 0.890625 1.90625q0.890625 0.6875 2.375 0.6875q1.375 0 2.109375 -0.5625q0.75 -0.5625 0.75 -1.53125q0 -0.984375 -0.6875 -1.515625q-0.6875 -0.53125 -2.46875 -1.046875zm14.646118 -0.21875l-5.75 0l0 4.6875l6.6875 0l0 1.4375l-8.421875 0l0 -13.265625l8.328125 0l0 1.4375l-6.59375 0l0 4.265625l5.75 0l0 1.4375zm13.30658 6.125l-1.765625 0l-6.671875 -10.21875l0 10.21875l-1.75 0l0 -13.265625l1.75 0l6.703125 10.265625l0 -10.265625l1.734375 0l0 13.265625zm7.0186157 -5.90625q-2.25 -0.65625 -3.28125 -1.59375q-1.03125 -0.9375 -1.03125 -2.328125q0 -1.5625 1.25 -2.59375q1.265625 -1.03125 3.265625 -1.03125q1.359375 0 2.4375 0.53125q1.078125 0.53125 1.65625 1.46875q0.59375 0.921875 0.59375 2.03125l-1.765625 0q0 -1.203125 -0.765625 -1.890625q-0.765625 -0.6875 -2.15625 -0.6875q-1.296875 0 -2.015625 0.5625q-0.71875 0.5625 -0.71875 1.578125q0 0.8125 0.6875 1.375q0.6875 0.5625 2.328125 1.03125q1.65625 0.453125 2.59375 1.015625q0.9375 0.5625 1.375 1.3125q0.453125 0.75 0.453125 1.75q0 1.609375 -1.25 2.59375q-1.25 0.96875 -3.359375 0.96875q-1.375 0 -2.5625 -0.515625q-1.171875 -0.53125 -1.8125 -1.4375q-0.640625 -0.921875 -0.640625 -2.078125l1.75 0q0 1.203125 0.890625 1.90625q0.890625 0.6875 2.375 0.6875q1.375 0 2.109375 -0.5625q0.75 -0.5625 0.75 -1.53125q0 -0.984375 -0.6875 -1.515625q-0.6875 -0.53125 -2.46875 -1.046875zm17.349304 -0.296875q0 1.953125 -0.65625 3.40625q-0.640625 1.453125 -1.84375 2.21875q-1.203125 0.765625 -2.8125 0.765625q-1.5625 0 -2.78125 -0.765625q-1.203125 -0.78125 -1.875 -2.203125q-0.671875 -1.421875 -0.6875 -3.296875l0 -0.96875q0 -1.90625 0.65625 -3.375q0.671875 -1.46875 1.890625 -2.25q1.21875 -0.78125 2.78125 -0.78125q1.59375 0 2.8125 0.78125q1.21875 0.765625 1.859375 2.234375q0.65625 1.453125 0.65625 3.390625l0 0.84375zm-1.734375 -0.859375q0 -2.359375 -0.953125 -3.609375q-0.9375 -1.265625 -2.640625 -1.265625q-1.65625 0 -2.609375 1.265625q-0.953125 1.25 -0.984375 3.5l0 0.96875q0 2.28125 0.953125 3.59375q0.96875 1.3125 2.65625 1.3125q1.6875 0 2.609375 -1.234375q0.9375 -1.234375 0.96875 -3.546875l0 -0.984375zm9.232422 1.703125l-3.125 0l0 5.359375l-1.75 0l0 -13.265625l4.390625 0q2.234375 0 3.4375 1.03125q1.21875 1.015625 1.21875 2.953125q0 1.25 -0.671875 2.171875q-0.671875 0.921875 -1.859375 1.375l3.109375 5.625l0 0.109375l-1.875 0l-2.875 -5.359375zm-3.125 -1.4375l2.6875 0q1.3125 0 2.078125 -0.671875q0.765625 -0.671875 0.765625 -1.8125q0 -1.21875 -0.734375 -1.875q-0.734375 -0.65625 -2.109375 -0.671875l-2.6875 0l0 5.03125z" fill-rule="nonzero"/><path fill="#1c4587" d="m757.13855 244.65187l-1.734375 0l0 15.23439l1.734375 0l0 1.390625l-3.4375 0l0 -18.000015l3.4375 0l0 1.375zm9.040161 10.3125l-5.546875 0l-1.25 3.4687653l-1.8125 0l5.0625 -13.26564l1.53125 0l5.078125 13.26564l-1.796875 0l-1.265625 -3.4687653zm-5.03125 -1.4375l4.515625 0l-2.265625 -6.203125l-2.25 6.203125zm19.045288 -6.921875l-4.265625 0l0 11.82814l-1.734375 0l0 -11.82814l-4.25 0l0 -1.4375l10.25 0l0 1.4375zm3.288086 1.96875l0.046875 1.09375q1.078125 -1.265625 2.921875 -1.265625q2.0625 0 2.8125 1.578125q0.5 -0.71875 1.28125 -1.140625q0.796875 -0.4375 1.859375 -0.4375q3.25 0 3.296875 3.421875l0 6.6093903l-1.671875 0l0 -6.5000153q0 -1.0625 -0.484375 -1.578125q-0.484375 -0.53125 -1.625 -0.53125q-0.9375 0 -1.5625 0.5625q-0.609375 0.5625 -0.71875 1.5l0 6.5468903l-1.6875 0l0 -6.4531403q0 -2.15625 -2.109375 -2.15625q-1.65625 0 -2.265625 1.40625l0 7.2031403l-1.6875 0l0 -9.85939l1.59375 0zm18.851501 10.04689q-2.0 0 -3.265625 -1.3125q-1.25 -1.3281403 -1.25 -3.5312653l0 -0.3125q0 -1.46875 0.5625 -2.609375q0.5625 -1.15625 1.5625 -1.796875q1.015625 -0.65625 2.1875 -0.65625q1.921875 0 2.984375 1.265625q1.0625 1.265625 1.0625 3.625l0 0.6875l-6.671875 0q0.03125 1.46875 0.84375 2.3750153q0.828125 0.890625 2.078125 0.890625q0.890625 0 1.515625 -0.359375q0.625 -0.375 1.078125 -0.96876526l1.03125 0.79689026q-1.234375 1.90625 -3.71875 1.90625zm-0.203125 -8.843765q-1.015625 0 -1.71875 0.75q-0.6875 0.734375 -0.84375 2.078125l4.9375 0l0 -0.125q-0.078125 -1.28125 -0.703125 -1.984375q-0.609375 -0.71875 -1.671875 -0.71875zm5.6026 3.640625q0 -2.296875 1.0625 -3.65625q1.0625 -1.359375 2.828125 -1.359375q1.796875 0 2.8125 1.265625l0.078125 -1.09375l1.546875 0l0 9.625015q0 1.90625 -1.140625 3.0q-1.125 1.109375 -3.046875 1.109375q-1.0625 0 -2.09375 -0.453125q-1.015625 -0.453125 -1.546875 -1.25l0.875 -1.0q1.078125 1.328125 2.65625 1.328125q1.21875 0 1.90625 -0.6875q0.6875 -0.6875 0.6875 -1.953125l0 -0.84375q-1.0 1.171875 -2.75 1.171875q-1.734375 0 -2.8125 -1.390625q-1.0625 -1.4062653 -1.0625 -3.8125153zm1.6875 0.203125q0 1.65625 0.6875 2.6093903q0.6875 0.953125 1.921875 0.953125q1.59375 0 2.328125 -1.4531403l0 -4.5q-0.765625 -1.40625 -2.3125 -1.40625q-1.234375 0 -1.9375 0.953125q-0.6875 0.953125 -0.6875 2.84375zm15.263672 4.8125153q-0.140625 -0.296875 -0.234375 -1.03125q-1.171875 1.21875 -2.8125 1.21875q-1.453125 0 -2.390625 -0.828125q-0.921875 -0.828125 -0.921875 -2.0937653q0 -1.53125 1.15625 -2.375q1.171875 -0.859375 3.296875 -0.859375l1.640625 0l0 -0.78125q0 -0.890625 -0.53125 -1.40625q-0.515625 -0.53125 -1.546875 -0.53125q-0.90625 0 -1.515625 0.46875q-0.609375 0.453125 -0.609375 1.09375l-1.703125 0q0 -0.734375 0.515625 -1.421875q0.53125 -0.6875 1.421875 -1.078125q0.90625 -0.40625 1.984375 -0.40625q1.703125 0 2.671875 0.859375q0.96875 0.84375 1.0 2.328125l0 4.5312653q0 1.359375 0.34375 2.171875l0 0.140625l-1.765625 0zm-2.796875 -1.28125q0.796875 0 1.5 -0.40625q0.71875 -0.421875 1.03125 -1.0781403l0 -2.015625l-1.3125 0q-3.109375 0 -3.109375 1.8125q0 0.79689026 0.53125 1.2500153q0.53125 0.4375 1.359375 0.4375zm14.726074 -8.51564q0 0.984375 -0.53125 1.765625q-0.515625 0.765625 -1.40625 1.203125q1.046875 0.453125 1.640625 1.3125q0.609375 0.84375 0.609375 1.9375q0 1.7187653 -1.171875 2.7500153q-1.15625 1.015625 -3.046875 1.015625q-1.90625 0 -3.0625 -1.03125q-1.15625 -1.03125 -1.15625 -2.7343903q0 -1.078125 0.59375 -1.9375q0.59375 -0.875 1.625 -1.3125q-0.890625 -0.4375 -1.40625 -1.203125q-0.5 -0.78125 -0.5 -1.765625q0 -1.6875 1.078125 -2.671875q1.078125 -0.984375 2.828125 -0.984375q1.75 0 2.828125 0.984375q1.078125 0.984375 1.078125 2.671875zm-1.375 6.1875q0 -1.125 -0.703125 -1.8125q-0.703125 -0.703125 -1.84375 -0.703125q-1.140625 0 -1.828125 0.6875q-0.6875 0.6875 -0.6875 1.828125q0 1.125 0.671875 1.7812653q0.671875 0.640625 1.859375 0.640625q1.1875 0 1.859375 -0.65625q0.671875 -0.65626526 0.671875 -1.7656403zm-2.53125 -8.453125q-0.984375 0 -1.609375 0.625q-0.609375 0.609375 -0.609375 1.65625q0 1.015625 0.609375 1.640625q0.609375 0.625 1.609375 0.625q1.015625 0 1.609375 -0.625q0.609375 -0.625 0.609375 -1.625q0 -1.015625 -0.625 -1.65625q-0.625 -0.640625 -1.59375 -0.640625zm14.382202 2.265625q0 0.984375 -0.53125 1.765625q-0.515625 0.765625 -1.40625 1.203125q1.046875 0.453125 1.640625 1.3125q0.609375 0.84375 0.609375 1.9375q0 1.7187653 -1.171875 2.7500153q-1.15625 1.015625 -3.046875 1.015625q-1.90625 0 -3.0625 -1.03125q-1.15625 -1.03125 -1.15625 -2.7343903q0 -1.078125 0.59375 -1.9375q0.59375 -0.875 1.625 -1.3125q-0.890625 -0.4375 -1.40625 -1.203125q-0.5 -0.78125 -0.5 -1.765625q0 -1.6875 1.078125 -2.671875q1.078125 -0.984375 2.828125 -0.984375q1.75 0 2.828125 0.984375q1.078125 0.984375 1.078125 2.671875zm-1.375 6.1875q0 -1.125 -0.703125 -1.8125q-0.703125 -0.703125 -1.84375 -0.703125q-1.140625 0 -1.828125 0.6875q-0.6875 0.6875 -0.6875 1.828125q0 1.125 0.671875 1.7812653q0.671875 0.640625 1.859375 0.640625q1.1875 0 1.859375 -0.65625q0.671875 -0.65626526 0.671875 -1.7656403zm-2.53125 -8.453125q-0.984375 0 -1.609375 0.625q-0.609375 0.609375 -0.609375 1.65625q0 1.015625 0.609375 1.640625q0.609375 0.625 1.609375 0.625q1.015625 0 1.609375 -0.625q0.609375 -0.625 0.609375 -1.625q0 -1.015625 -0.625 -1.65625q-0.625 -0.640625 -1.59375 -0.640625zm5.319641 -3.09375l3.453125 0l0 18.000015l-3.453125 0l0 -1.390625l1.765625 0l0 -15.23439l-1.765625 0l0 -1.375z" fill-rule="nonzero"/><path fill="#f9cb9c" d="m512.3491 79.016045l0 0c0 -5.180855 4.199951 -9.380768 9.380798 -9.380768l71.285706 0c2.487915 0 4.8739624 0.988327 6.6331787 2.7475662c1.7592773 1.7592316 2.7475586 4.1452637 2.7475586 6.6332016l0 37.521935c0 5.180855 -4.19989 9.38076 -9.380737 9.38076l-71.285706 0c-5.180847 0 -9.380798 -4.1999054 -9.380798 -9.38076z" fill-rule="evenodd"/><path stroke="#e69138" stroke-width="3.0" stroke-linejoin="round" stroke-linecap="butt" d="m512.3491 79.016045l0 0c0 -5.180855 4.199951 -9.380768 9.380798 -9.380768l71.285706 0c2.487915 0 4.8739624 0.988327 6.6331787 2.7475662c1.7592773 1.7592316 2.7475586 4.1452637 2.7475586 6.6332016l0 37.521935c0 5.180855 -4.19989 9.38076 -9.380737 9.38076l-71.285706 0c-5.180847 0 -9.380798 -4.1999054 -9.380798 -9.38076z" fill-rule="evenodd"/><path fill="#783f04" d="m535.124 85.10826l0 6.4375q0 1.34375 -0.84375 2.203125q-0.828125 0.84375 -2.265625 0.9375l-0.328125 0.015625q-1.5625 0 -2.484375 -0.828125q-0.921875 -0.84375 -0.9375 -2.3125l0 -6.453125l1.234375 0l0 6.40625q0 1.03125 0.5625 1.609375q0.578125 0.5625 1.625 0.5625q1.0625 0 1.625 -0.5625q0.5625 -0.578125 0.5625 -1.59375l0 -6.421875l1.25 0zm3.095581 9.46875l-1.203125 0l0 -10.0l1.203125 0l0 10.0zm3.562561 -8.75l0 1.703125l1.3125 0l0 0.9375l-1.3125 0l0 4.359375q0 0.421875 0.171875 0.640625q0.171875 0.21875 0.59375 0.21875q0.21875 0 0.578125 -0.078125l0 0.96875q-0.46875 0.125 -0.921875 0.125q-0.8125 0 -1.21875 -0.484375q-0.40625 -0.484375 -0.40625 -1.390625l0 -4.359375l-1.28125 0l0 -0.9375l1.28125 0l0 -1.703125l1.203125 0zm6.119385 2.78125q-0.265625 -0.03125 -0.59375 -0.03125q-1.1875 0 -1.609375 1.0l0 5.0l-1.203125 0l0 -7.046875l1.171875 0l0.03125 0.8125q0.578125 -0.9375 1.671875 -0.9375q0.34375 0 0.53125 0.09375l0 1.109375zm5.463135 5.96875q-0.109375 -0.203125 -0.171875 -0.734375q-0.84375 0.859375 -2.015625 0.859375q-1.03125 0 -1.703125 -0.578125q-0.671875 -0.59375 -0.671875 -1.5q0 -1.09375 0.828125 -1.703125q0.84375 -0.609375 2.359375 -0.609375l1.171875 0l0 -0.5625q0 -0.625 -0.375 -1.0q-0.375 -0.375 -1.109375 -0.375q-0.640625 0 -1.078125 0.328125q-0.4375 0.328125 -0.4375 0.78125l-1.203125 0q0 -0.515625 0.359375 -1.0q0.375 -0.5 1.015625 -0.78125q0.65625 -0.296875 1.421875 -0.296875q1.21875 0 1.90625 0.609375q0.6875 0.609375 0.71875 1.671875l0 3.25q0 0.96875 0.234375 1.53125l0 0.109375l-1.25 0zm-2.0 -0.921875q0.5625 0 1.0625 -0.28125q0.515625 -0.296875 0.734375 -0.765625l0 -1.453125l-0.9375 0q-2.21875 0 -2.21875 1.296875q0 0.5625 0.375 0.890625q0.390625 0.3125 0.984375 0.3125zm8.999756 -0.953125q0 -0.484375 -0.375 -0.75q-0.359375 -0.265625 -1.28125 -0.453125q-0.90625 -0.203125 -1.453125 -0.46875q-0.53125 -0.28125 -0.796875 -0.65625q-0.25 -0.390625 -0.25 -0.90625q0 -0.859375 0.734375 -1.453125q0.734375 -0.609375 1.875 -0.609375q1.1875 0 1.9375 0.625q0.75 0.609375 0.75 1.578125l-1.21875 0q0 -0.5 -0.421875 -0.859375q-0.421875 -0.359375 -1.046875 -0.359375q-0.65625 0 -1.03125 0.296875q-0.375 0.28125 -0.375 0.75q0 0.421875 0.34375 0.65625q0.34375 0.21875 1.25 0.421875q0.90625 0.203125 1.453125 0.484375q0.5625 0.265625 0.828125 0.671875q0.28125 0.390625 0.28125 0.953125q0 0.9375 -0.765625 1.515625q-0.75 0.5625 -1.953125 0.5625q-0.84375 0 -1.5 -0.296875q-0.640625 -0.296875 -1.015625 -0.828125q-0.359375 -0.546875 -0.359375 -1.171875l1.203125 0q0.03125 0.609375 0.484375 0.96875q0.453125 0.34375 1.1875 0.34375q0.6875 0 1.09375 -0.265625q0.421875 -0.28125 0.421875 -0.75zm2.4504395 -1.703125q0 -1.046875 0.40625 -1.875q0.40625 -0.828125 1.125 -1.265625q0.734375 -0.453125 1.65625 -0.453125q1.4375 0 2.328125 1.0q0.890625 0.984375 0.890625 2.640625l0 0.09375q0 1.015625 -0.390625 1.84375q-0.390625 0.8125 -1.125 1.265625q-0.734375 0.453125 -1.6875 0.453125q-1.421875 0 -2.3125 -0.984375q-0.890625 -1.0 -0.890625 -2.640625l0 -0.078125zm1.203125 0.140625q0 1.171875 0.546875 1.875q0.546875 0.703125 1.453125 0.703125q0.921875 0 1.453125 -0.71875q0.546875 -0.71875 0.546875 -2.0q0 -1.171875 -0.546875 -1.890625q-0.546875 -0.71875 -1.46875 -0.71875q-0.890625 0 -1.4375 0.71875q-0.546875 0.703125 -0.546875 2.03125zm7.8511963 -3.609375l0.046875 0.890625q0.796875 -1.015625 2.109375 -1.015625q2.234375 0 2.25 2.515625l0 4.65625l-1.203125 0l0 -4.65625q-0.015625 -0.765625 -0.359375 -1.125q-0.328125 -0.375 -1.0625 -0.375q-0.578125 0 -1.03125 0.3125q-0.4375 0.3125 -0.6875 0.828125l0 5.015625l-1.203125 0l0 -7.046875l1.140625 0zm7.525757 7.046875l-1.203125 0l0 -7.046875l1.203125 0l0 7.046875zm-1.296875 -8.90625q0 -0.296875 0.171875 -0.5q0.1875 -0.203125 0.53125 -0.203125q0.359375 0 0.53125 0.203125q0.1875 0.203125 0.1875 0.5q0 0.296875 -0.1875 0.5q-0.171875 0.1875 -0.53125 0.1875q-0.34375 0 -0.53125 -0.1875q-0.171875 -0.203125 -0.171875 -0.5zm6.046936 8.046875q0.640625 0 1.125 -0.390625q0.484375 -0.390625 0.53125 -0.96875l1.140625 0q-0.03125 0.609375 -0.421875 1.15625q-0.375 0.546875 -1.015625 0.875q-0.640625 0.3125 -1.359375 0.3125q-1.4375 0 -2.296875 -0.953125q-0.84375 -0.96875 -0.84375 -2.625l0 -0.203125q0 -1.03125 0.375 -1.828125q0.390625 -0.796875 1.09375 -1.234375q0.703125 -0.453125 1.671875 -0.453125q1.171875 0 1.953125 0.71875q0.796875 0.703125 0.84375 1.828125l-1.140625 0q-0.046875 -0.671875 -0.515625 -1.109375q-0.46875 -0.453125 -1.140625 -0.453125q-0.921875 0 -1.4375 0.671875q-0.5 0.65625 -0.5 1.90625l0 0.21875q0 1.21875 0.5 1.875q0.515625 0.65625 1.4375 0.65625z" fill-rule="nonzero"/><path fill="#783f04" d="m530.7777 100.73326l-1.25 0l0 10.890625l1.25 0l0 0.984375l-2.453125 0l0 -12.859375l2.453125 0l0 0.984375zm8.502502 9.84375l-1.25 0l0 -4.375l-4.78125 0l0 4.375l-1.25 0l0 -9.46875l1.25 0l0 4.0625l4.78125 0l0 -4.0625l1.25 0l0 9.46875zm9.189026 -3.0q-0.171875 1.5 -1.109375 2.3125q-0.921875 0.8125 -2.46875 0.8125q-1.6875 0 -2.703125 -1.203125q-1.0 -1.203125 -1.0 -3.21875l0 -0.90625q0 -1.328125 0.46875 -2.328125q0.46875 -1.0 1.328125 -1.53125q0.875 -0.546875 2.015625 -0.546875q1.5 0 2.40625 0.84375q0.921875 0.84375 1.0625 2.328125l-1.25 0q-0.15625 -1.125 -0.703125 -1.625q-0.546875 -0.515625 -1.515625 -0.515625q-1.203125 0 -1.890625 0.890625q-0.671875 0.875 -0.671875 2.515625l0 0.921875q0 1.53125 0.640625 2.453125q0.640625 0.90625 1.8125 0.90625q1.03125 0 1.578125 -0.46875q0.5625 -0.46875 0.75 -1.640625l1.25 0zm4.034363 -0.53125l-3.1875 0l0 -0.984375l3.1875 0l0 0.984375zm4.145691 -0.6875q-1.609375 -0.46875 -2.34375 -1.140625q-0.734375 -0.671875 -0.734375 -1.65625q0 -1.125 0.890625 -1.859375q0.90625 -0.734375 2.34375 -0.734375q0.96875 0 1.734375 0.390625q0.765625 0.375 1.1875 1.046875q0.421875 0.65625 0.421875 1.4375l-1.265625 0q0 -0.859375 -0.546875 -1.34375q-0.546875 -0.5 -1.53125 -0.5q-0.921875 0 -1.453125 0.40625q-0.515625 0.40625 -0.515625 1.125q0 0.578125 0.484375 0.984375q0.5 0.40625 1.671875 0.734375q1.1875 0.328125 1.859375 0.734375q0.671875 0.390625 0.984375 0.9375q0.328125 0.53125 0.328125 1.25q0 1.15625 -0.90625 1.84375q-0.890625 0.6875 -2.390625 0.6875q-0.984375 0 -1.828125 -0.375q-0.84375 -0.375 -1.3125 -1.015625q-0.453125 -0.65625 -0.453125 -1.484375l1.265625 0q0 0.859375 0.625 1.359375q0.640625 0.5 1.703125 0.5q0.984375 0 1.515625 -0.40625q0.53125 -0.40625 0.53125 -1.09375q0 -0.703125 -0.5 -1.078125q-0.484375 -0.390625 -1.765625 -0.75zm8.5946045 0.390625l-2.234375 0l0 3.828125l-1.25 0l0 -9.46875l3.140625 0q1.59375 0 2.453125 0.734375q0.875 0.71875 0.875 2.109375q0 0.890625 -0.484375 1.546875q-0.484375 0.65625 -1.328125 0.984375l2.21875 4.015625l0 0.078125l-1.34375 0l-2.046875 -3.828125zm-2.234375 -1.03125l1.921875 0q0.9375 0 1.484375 -0.46875q0.546875 -0.484375 0.546875 -1.296875q0 -0.875 -0.53125 -1.34375q-0.515625 -0.46875 -1.5 -0.484375l-1.921875 0l0 3.59375zm12.597046 0.8125q0 2.125 -0.734375 3.15625q-0.71875 1.015625 -2.25 1.015625q-1.515625 0 -2.25 -1.0q-0.71875 -1.0 -0.75 -3.0l0 -1.609375q0 -2.09375 0.71875 -3.109375q0.71875 -1.015625 2.265625 -1.015625q1.53125 0 2.25 0.984375q0.71875 0.984375 0.75 3.015625l0 1.5625zm-1.203125 -1.640625q0 -1.53125 -0.4375 -2.21875q-0.421875 -0.703125 -1.359375 -0.703125q-0.921875 0 -1.34375 0.703125q-0.421875 0.6875 -0.4375 2.125l0 1.921875q0 1.546875 0.4375 2.28125q0.453125 0.71875 1.359375 0.71875q0.890625 0 1.3125 -0.6875q0.4375 -0.6875 0.46875 -2.171875l0 -1.96875zm7.82782 2.5l1.3125 0l0 0.984375l-1.3125 0l0 2.203125l-1.21875 0l0 -2.203125l-4.3125 0l0 -0.703125l4.25 -6.5625l1.28125 0l0 6.28125zm-4.15625 0l2.9375 0l0 -4.640625l-0.140625 0.265625l-2.796875 4.375zm5.827759 -7.640625l2.453125 0l0 12.859375l-2.453125 0l0 -0.984375l1.25 0l0 -10.890625l-1.25 0l0 -0.984375z" fill-rule="nonzero"/><path fill="#000000" fill-opacity="0.0" d="m557.37274 125.91874c0 15.688499 -24.929138 23.534462 -49.858246 31.376976c-24.929138 7.8425293 -49.858276 15.681595 -49.858276 31.36319" fill-rule="evenodd"/><path stroke="#b45f06" stroke-width="3.0" stroke-linejoin="round" stroke-linecap="butt" d="m557.37274 125.91874c0 15.688499 -24.929138 23.534462 -49.858246 31.376976c-24.929138 7.8425293 -49.858276 15.681595 -49.858276 31.36319" fill-rule="evenodd"/></g></svg>